P2
8 11
255
127 127 127 127 255 255 255 255 
127 127 127 127 255 255 255 255 
127 127 127 127 255 255 255 255 
255 255 255 255 255 255 255 255 
255 255 255 255 255 255 255 255 
255 255 255 255 10 255 255 255 
255 255 255 10 255 10 255 255 
255 255 10 255 255 255 10 255 
255 10 10 10 10 10 10 10 
255 255 255 255 255 255 255 255 
255 255 255 255 255 255 255 255 
