<svg width="21" height="16" viewBox="0 0 21 16" fill="none" xmlns="http://www.w3.org/2000/svg">
<path fill-rule="evenodd" clip-rule="evenodd" d="M14.4998 2.03859C14.0941 1.9716 13.6787 1.99201 13.2815 2.09844C12.748 2.24138 12.1997 1.9248 12.0568 1.39133C11.9138 0.857864 12.2304 0.309527 12.7639 0.166585C13.4361 -0.0135297 14.139 -0.0480611 14.8256 0.0652996C15.5122 0.17866 16.1667 0.4373 16.7453 0.823927C17.324 1.21055 17.8134 1.71626 18.1809 2.30722C18.5483 2.89819 18.7854 3.56081 18.8763 4.25076C18.9671 4.94072 18.9096 5.64211 18.7076 6.30806C18.5056 6.974 18.1637 7.58915 17.7049 8.11236C17.5697 8.2665 17.4253 8.41162 17.2726 8.54699C17.9554 8.89016 18.5856 9.34261 19.1361 9.89311C19.3802 10.1372 19.6051 10.3971 19.8098 10.6703C20.2684 11.2826 20.4844 11.965 20.4463 12.6537C20.4089 13.3318 20.13 13.9389 19.7312 14.429C18.9465 15.3935 17.6308 16 16.2515 16H15.1403C14.5881 16 14.1403 15.5523 14.1403 15C14.1403 14.4477 14.5881 14 15.1403 14H16.2515C17.0813 14 17.8067 13.6254 18.1798 13.1668C18.3599 12.9454 18.439 12.7305 18.4494 12.5434C18.4591 12.3669 18.4126 12.1411 18.209 11.8693C18.0611 11.6718 17.8985 11.4839 17.7219 11.3073C16.7425 10.328 15.4142 9.77777 14.0292 9.77777C13.4769 9.77777 13.0292 9.33006 13.0292 8.77777C13.0292 8.22549 13.4769 7.77777 14.0292 7.77777C14.4404 7.77777 14.8469 7.68999 15.2215 7.52027C15.596 7.35056 15.93 7.10284 16.2012 6.79367C16.4723 6.4845 16.6743 6.121 16.7937 5.72749C16.9131 5.33398 16.9471 4.91952 16.8934 4.51181C16.8397 4.10411 16.6996 3.71257 16.4825 3.36336C16.2653 3.01415 15.9761 2.71533 15.6342 2.48687C15.2923 2.2584 14.9055 2.10557 14.4998 2.03859ZM6.4692 2C4.87371 2 3.58031 3.2934 3.58031 4.88889C3.58031 6.48437 4.87372 7.77777 6.46922 7.77777C8.06471 7.77777 9.35809 6.48438 9.35809 4.88889C9.35809 3.2934 8.06469 2 6.4692 2ZM9.71264 8.54702C10.722 7.65142 11.3581 6.34444 11.3581 4.88889C11.3581 2.18883 9.16926 1.79296e-07 6.4692 1.79296e-07C3.76914 1.79296e-07 1.58031 2.18883 1.58031 4.88889C1.58031 6.34445 2.21642 7.65143 3.2258 8.54703C2.54302 8.89019 1.91282 9.34263 1.36234 9.89311C1.11821 10.1372 0.893325 10.3971 0.688692 10.6703C0.230064 11.2826 0.0140982 11.965 0.0521266 12.6537C0.0895708 13.3318 0.368498 13.9389 0.767257 14.429C1.55195 15.3935 2.86767 16 4.247 16H8.69145C10.0708 16 11.3865 15.3935 12.1712 14.429C12.57 13.9389 12.8489 13.3318 12.8863 12.6537C12.9243 11.965 12.7084 11.2826 12.2498 10.6703C12.0451 10.3971 11.8202 10.1372 11.5761 9.89311C11.0256 9.34263 10.3954 8.89019 9.71264 8.54702ZM6.46922 9.77777C5.0842 9.77777 3.75591 10.328 2.77655 11.3073C2.59996 11.4839 2.43736 11.6718 2.28944 11.8693C2.08587 12.1411 2.03934 12.3669 2.04908 12.5434C2.05941 12.7305 2.13853 12.9454 2.31866 13.1668C2.69175 13.6254 3.4172 14 4.247 14H8.69145C9.52126 14 10.2467 13.6254 10.6198 13.1668C10.7999 12.9454 10.879 12.7305 10.8894 12.5434C10.8991 12.3669 10.8526 12.1411 10.649 11.8693C10.5011 11.6718 10.3385 11.4839 10.1619 11.3073C9.18253 10.328 7.85424 9.77777 6.46922 9.77777Z" fill="white"/>
</svg>
