<svg width="44" height="42" viewBox="0 0 44 42" fill="none" xmlns="http://www.w3.org/2000/svg">
<path d="M39.048 40.6044C42.2279 40.4111 42.9889 38.0279 42.9719 36.8604V34.3865C33.3747 34.3639 13.7521 34.3186 12.0393 34.3186C10.3264 34.3186 8.92236 32.9493 8.92236 31.5465V0.55318H5.08972C1.87925 0.55318 0.624262 3.27055 0.624268 4.59904V36.8604C0.624269 38.4267 1.98878 40.6044 5.10873 40.6044H39.048Z" fill="white"/>
<path fill-rule="evenodd" clip-rule="evenodd" d="M11.978 0.55318H38.9867C40.2947 0.754467 42.9106 1.84544 42.9106 4.59904V30.7462C42.9106 30.7462 14.6519 30.7462 13.6597 30.7462C12.6674 30.7462 11.978 30.1635 11.978 29.2365V0.55318ZM25.3553 24.661L17.4558 17.6458C17.2238 17.015 19.3393 15.9747 19.7239 15.9747C20.159 15.9747 20.6718 16.1374 20.9499 16.368C21.5192 16.8648 22.3582 17.6254 23.1592 18.3515C24.1383 19.239 25.0607 20.0752 25.3646 20.3153C25.9643 20.789 26.292 20.4948 26.6067 20.2123C29.8187 17.3288 36.304 11.2798 36.9519 10.6722C37.2652 10.3785 38.319 10.3764 38.6622 10.6722C39.0631 11.0192 39.8525 12.1657 39.2712 12.7311C35.1703 16.7198 27.1082 24.2846 26.6067 24.661C26.1478 25.0055 25.7117 24.9256 25.3553 24.661Z" fill="white"/>
<path d="M42.9106 4.59904C42.9106 1.84544 40.2947 0.754467 38.9867 0.55318H11.978V29.2365C11.978 30.1635 12.6674 30.7462 13.6597 30.7462C14.6519 30.7462 42.9106 30.7462 42.9106 30.7462M42.9106 4.59904C42.9106 6.89896 42.9106 20.7893 42.9106 30.7462M42.9106 4.59904V30.7462M42.9719 36.8604C42.9889 38.0279 42.2279 40.4111 39.048 40.6044M42.9719 36.8604C42.9719 36.0978 42.9719 35.2683 42.9719 34.3865M42.9719 36.8604V34.3865M39.048 40.6044C35.8681 40.6044 15.0969 40.6044 5.10873 40.6044M39.048 40.6044H5.10873M5.10873 40.6044C1.98878 40.6044 0.624269 38.4267 0.624268 36.8604M0.624268 36.8604C0.624267 34.7294 0.624274 5.92754 0.624268 4.59904M0.624268 36.8604V4.59904M0.624268 4.59904C0.624262 3.27055 1.87925 0.55318 5.08972 0.55318M5.08972 0.55318C6.2888 0.55318 7.67201 0.55318 8.92236 0.55318M5.08972 0.55318H8.92236M8.92236 0.55318V31.5465C8.92236 32.9493 10.3264 34.3186 12.0393 34.3186C13.7521 34.3186 33.3747 34.3639 42.9719 34.3865M17.4558 17.6458L25.3553 24.661C25.7117 24.9256 26.1478 25.0055 26.6067 24.661C27.1082 24.2846 35.1703 16.7198 39.2712 12.7311C39.8525 12.1657 39.0631 11.0192 38.6622 10.6722C38.319 10.3764 37.2652 10.3785 36.9519 10.6722C36.304 11.2798 29.8187 17.3288 26.6067 20.2123C26.292 20.4948 25.9643 20.789 25.3646 20.3153C25.0607 20.0752 24.1383 19.239 23.1592 18.3515C22.3582 17.6254 21.5192 16.8648 20.9499 16.368C20.6718 16.1374 20.159 15.9747 19.7239 15.9747C19.3393 15.9747 17.2238 17.015 17.4558 17.6458Z" stroke="white"/>
</svg>
