<svg width="21" height="16" viewBox="0 0 21 16" fill="none" xmlns="http://www.w3.org/2000/svg">
<path fill-rule="evenodd" clip-rule="evenodd" d="M6.4692 2C4.87371 2 3.58031 3.2934 3.58031 4.88889C3.58031 6.48437 4.87372 7.77777 6.46922 7.77777C8.06471 7.77777 9.35809 6.48438 9.35809 4.88889C9.35809 3.2934 8.06469 2 6.4692 2ZM9.71264 8.54702C10.722 7.65142 11.3581 6.34444 11.3581 4.88889C11.3581 2.18883 9.16926 0 6.4692 0C3.76914 0 1.58031 2.18883 1.58031 4.88889C1.58031 6.34445 2.21642 7.65143 3.2258 8.54703C2.54302 8.89019 1.91282 9.34263 1.36234 9.89311C1.11821 10.1372 0.893324 10.3971 0.688692 10.6703C0.230064 11.2826 0.0140982 11.965 0.0521266 12.6537C0.0895708 13.3318 0.368498 13.9389 0.767257 14.429C1.55195 15.3935 2.86767 16 4.247 16L8.69145 16C10.0708 16 11.3865 15.3935 12.1712 14.429C12.57 13.9389 12.8489 13.3318 12.8863 12.6537C12.9243 11.965 12.7084 11.2826 12.2498 10.6703C12.0451 10.3971 11.8202 10.1372 11.5761 9.89311C11.0256 9.34263 10.3954 8.89018 9.71264 8.54702ZM6.46922 9.77777C5.0842 9.77777 3.75591 10.328 2.77655 11.3073C2.59996 11.4839 2.43736 11.6718 2.28944 11.8693C2.08587 12.1411 2.03934 12.3669 2.04908 12.5434C2.05941 12.7305 2.13853 12.9454 2.31866 13.1668C2.69175 13.6254 3.4172 14 4.247 14L8.69145 14C9.52126 14 10.2467 13.6254 10.6198 13.1668C10.7999 12.9454 10.879 12.7305 10.8894 12.5434C10.8991 12.3669 10.8526 12.1411 10.649 11.8693C10.5011 11.6718 10.3385 11.4839 10.1619 11.3073C9.18253 10.328 7.85424 9.77777 6.46922 9.77777ZM13.247 6C13.247 5.44772 13.6947 5 14.247 5H19.247C19.7993 5 20.247 5.44772 20.247 6C20.247 6.55228 19.7993 7 19.247 7H14.247C13.6947 7 13.247 6.55228 13.247 6ZM14.247 10C14.247 9.44771 14.6947 9 15.247 9H19.247C19.7993 9 20.247 9.44771 20.247 10C20.247 10.5523 19.7993 11 19.247 11H15.247C14.6947 11 14.247 10.5523 14.247 10Z" fill="white"/>
</svg>
