<svg width="18" height="20" viewBox="0 0 18 20" fill="none" xmlns="http://www.w3.org/2000/svg">
<path fill-rule="evenodd" clip-rule="evenodd" d="M9.24722 2C7.03808 2 5.24722 3.79086 5.24722 6C5.24722 8.20914 7.03809 10 9.24722 10C11.4564 10 13.2472 8.20914 13.2472 6C13.2472 3.79086 11.4564 2 9.24722 2ZM12.8882 10.7694C14.3222 9.67298 15.2472 7.94452 15.2472 6C15.2472 2.68629 12.5609 0 9.24722 0C5.93352 0 3.24722 2.68629 3.24722 6C3.24722 7.94452 4.17224 9.67298 5.60624 10.7694C4.60076 11.2142 3.67573 11.8436 2.88326 12.636C2.27133 13.248 1.75657 13.939 1.349 14.6851C0.596879 16.0619 0.903605 17.4657 1.75062 18.4584C2.56602 19.414 3.87225 20 5.24722 20H13.2472C14.6222 20 15.9284 19.414 16.7438 18.4584C17.5908 17.4657 17.8976 16.0619 17.1455 14.6851C16.7379 13.939 16.2231 13.248 15.6112 12.636C14.8187 11.8436 13.8937 11.2142 12.8882 10.7694ZM9.24722 12C7.39071 12 5.61023 12.7375 4.29748 14.0503C3.82147 14.5263 3.42116 15.0637 3.10418 15.6439C2.79722 16.2058 2.89624 16.7198 3.27203 17.1602C3.67943 17.6376 4.41306 18 5.24722 18H13.2472C14.0814 18 14.815 17.6376 15.2224 17.1602C15.5982 16.7198 15.6972 16.2058 15.3903 15.6439C15.0733 15.0637 14.673 14.5263 14.197 14.0503C12.8842 12.7375 11.1037 12 9.24722 12Z" fill="white"/>
</svg>
