<svg width="24" height="18" viewBox="0 0 24 18" fill="none" xmlns="http://www.w3.org/2000/svg">
<path fill-rule="evenodd" clip-rule="evenodd" d="M5.43655 0.440525C6.46929 -0.0303243 7.63368 -0.127174 8.73001 0.166588C9.26348 0.30953 9.58006 0.857867 9.43712 1.39133C9.29418 1.9248 8.74584 2.24138 8.21237 2.09844C7.56454 1.92485 6.87649 1.98208 6.26624 2.26031C5.65599 2.53854 5.16155 3.02043 4.86774 3.62334C4.57393 4.22624 4.49905 4.91259 4.65594 5.56467C4.81283 6.21675 5.19171 6.79392 5.72761 7.1972C6.01835 7.41599 6.1673 7.77542 6.11654 8.13573C6.06579 8.49603 5.82333 8.80033 5.48347 8.93028C4.80413 9.19004 4.18005 9.59126 3.65588 10.1154C3.47929 10.292 3.31669 10.4799 3.16876 10.6774C2.86053 11.0889 2.88063 11.4336 3.04284 11.7423C3.23438 12.1068 3.67451 12.4847 4.29706 12.6806C4.8239 12.8463 5.11663 13.4077 4.95091 13.9345C4.78518 14.4614 4.22375 14.7541 3.69692 14.5884C2.67511 14.267 1.75636 13.5936 1.27241 12.6727C0.75912 11.6959 0.787095 10.521 1.56802 9.4784C1.77265 9.2052 1.99754 8.94534 2.24167 8.70122C2.61807 8.32481 3.03177 7.99423 3.47405 7.7131C3.11805 7.21007 2.85772 6.64053 2.71143 6.03252C2.44592 4.929 2.57265 3.76749 3.06987 2.74719C3.56709 1.72688 4.40382 0.911375 5.43655 0.440525ZM18.2278 2.26031C17.6176 1.98208 16.9295 1.92485 16.2817 2.09844C15.7482 2.24138 15.1999 1.9248 15.057 1.39133C14.914 0.857867 15.2306 0.30953 15.7641 0.166588C16.8604 -0.127174 18.0248 -0.0303243 19.0575 0.440525C20.0903 0.911375 20.927 1.72688 21.4242 2.74719C21.9214 3.76749 22.0482 4.929 21.7827 6.03252C21.6364 6.64053 21.376 7.21007 21.02 7.7131C21.4623 7.99423 21.876 8.32481 22.2524 8.70122C22.4965 8.94534 22.7214 9.2052 22.9261 9.4784C23.707 10.521 23.735 11.6959 23.2217 12.6727C22.7377 13.5936 21.819 14.267 20.7972 14.5884C20.2703 14.7541 19.7089 14.4614 19.5432 13.9345C19.3775 13.4077 19.6702 12.8463 20.197 12.6806C20.8196 12.4847 21.2597 12.1068 21.4512 11.7423C21.6135 11.4336 21.6336 11.0889 21.3253 10.6774C21.1774 10.4799 21.0148 10.292 20.8382 10.1154C20.314 9.59126 19.69 9.19004 19.0106 8.93028C18.6708 8.80033 18.4283 8.49603 18.3775 8.13573C18.3268 7.77542 18.4757 7.41599 18.7665 7.1972C19.3024 6.79392 19.6813 6.21675 19.8381 5.56467C19.995 4.91259 19.9202 4.22624 19.6263 3.62334C19.3325 3.02043 18.8381 2.53854 18.2278 2.26031ZM12.2472 4C10.6517 4 9.35828 5.2934 9.35828 6.88889C9.35828 8.48439 10.6517 9.77783 12.2472 9.77783C13.8427 9.77783 15.1361 8.4844 15.1361 6.88889C15.1361 5.2934 13.8427 4 12.2472 4ZM15.4906 10.5471C16.5 9.65145 17.1361 8.34444 17.1361 6.88889C17.1361 4.18883 14.9472 2 12.2472 2C9.54711 2 7.35828 4.18883 7.35828 6.88889C7.35828 8.34445 7.99439 9.65146 9.00378 10.5471C8.321 10.8902 7.6908 11.3427 7.14031 11.8932C6.89618 12.1373 6.67129 12.3972 6.46666 12.6704C6.00803 13.2826 5.79207 13.9651 5.8301 14.6538C5.86754 15.3319 6.14647 15.939 6.54523 16.4291C7.32992 17.3936 8.64564 18.0001 10.025 18.0001H14.4694C15.8488 18.0001 17.1645 17.3936 17.9492 16.4291C18.3479 15.939 18.6268 15.3319 18.6643 14.6538C18.7023 13.9651 18.4864 13.2826 18.0277 12.6704C17.8231 12.3972 17.5982 12.1373 17.3541 11.8932C16.8036 11.3427 16.1734 10.8902 15.4906 10.5471ZM12.2472 11.7778C10.8622 11.7778 9.53388 12.328 8.55452 13.3074C8.37793 13.484 8.21533 13.6719 8.0674 13.8694C7.86384 14.1411 7.81731 14.367 7.82705 14.5435C7.83738 14.7306 7.9165 14.9455 8.09663 15.1669C8.46972 15.6255 9.19516 16.0001 10.025 16.0001H14.4694C15.2992 16.0001 16.0247 15.6255 16.3978 15.1669C16.5779 14.9455 16.657 14.7306 16.6673 14.5435C16.6771 14.367 16.6305 14.1411 16.427 13.8694C16.2791 13.6719 16.1164 13.484 15.9399 13.3074C14.9605 12.328 13.6322 11.7778 12.2472 11.7778Z" fill="white"/>
</svg>
