<svg width="25" height="24" viewBox="0 0 25 24" fill="none" xmlns="http://www.w3.org/2000/svg">
<path fill-rule="evenodd" clip-rule="evenodd" d="M12.2471 4C7.82879 4 4.24707 7.58172 4.24707 12C4.24707 14.0991 5.05513 16.0099 6.37906 17.4377C6.42905 17.2724 6.49553 17.1099 6.58225 16.9549C6.87624 16.4292 7.24711 15.9432 7.68716 15.5134C8.12878 15.082 8.62702 14.7201 9.16441 14.4341C8.34594 13.6506 7.83423 12.5557 7.83423 11.3333C7.83423 8.91801 9.83228 7 12.2471 7C14.6619 7 16.6599 8.91801 16.6599 11.3333C16.6599 12.5557 16.1482 13.6506 15.3297 14.4341C15.8671 14.7201 16.3654 15.082 16.807 15.5134C17.247 15.9432 17.6179 16.4292 17.9119 16.9549C17.9986 17.1099 18.0651 17.2724 18.1151 17.4377C19.439 16.0099 20.2471 14.0991 20.2471 12C20.2471 7.58172 16.6653 4 12.2471 4ZM16.1882 18.9637C16.227 18.7639 16.2465 18.5764 16.2471 18.4103C16.248 18.1358 16.1977 17.9872 16.1664 17.9312C15.9658 17.5726 15.7121 17.2397 15.4095 16.9442C14.5747 16.1288 13.4376 15.6667 12.2471 15.6667C11.0566 15.6667 9.91941 16.1288 9.08461 16.9442C8.78207 17.2396 8.52833 17.5726 8.32777 17.9312C8.29641 17.9872 8.24612 18.1358 8.24708 18.4103C8.24767 18.5764 8.26712 18.7639 8.30595 18.9637C9.46858 19.6233 10.8126 20 12.2471 20C13.6816 20 15.0256 19.6233 16.1882 18.9637ZM12.2471 13.6667C13.602 13.6667 14.6599 12.5999 14.6599 11.3333C14.6599 10.0668 13.602 9 12.2471 9C10.8921 9 9.83423 10.0668 9.83423 11.3333C9.83423 12.5999 10.8921 13.6667 12.2471 13.6667ZM2.24707 12C2.24707 6.47715 6.72422 2 12.2471 2C17.7699 2 22.2471 6.47715 22.2471 12C22.2471 15.5573 20.3889 18.6798 17.5951 20.4512C16.0478 21.4321 14.2122 22 12.2471 22C10.2819 22 8.44636 21.4321 6.89909 20.4512C4.10521 18.6798 2.24707 15.5573 2.24707 12Z" fill="white"/>
</svg>
